<mxfile host="app.diagrams.net" modified="2022-08-02T22:58:55.087Z" agent="5.0 (X11)" etag="T25bEuauSi6uI8TqrznO" version="20.2.2" type="github">
  <diagram id="Rtj_xhAMCjtNW2K5r0i-" name="Page-1">
    <mxGraphModel dx="2912" dy="1147" grid="1" gridSize="10" guides="1" tooltips="1" connect="1" arrows="1" fold="1" page="1" pageScale="1" pageWidth="850" pageHeight="1100" math="0" shadow="0">
      <root>
        <mxCell id="0" />
        <mxCell id="1" parent="0" />
        <mxCell id="cmLPi3Eq9WUsnecLFcOw-14" value="" style="rounded=0;whiteSpace=wrap;html=1;verticalAlign=top;fillColor=#f5f5f5;fontColor=#333333;strokeColor=#666666;" parent="1" vertex="1">
          <mxGeometry x="-550" y="92" width="468" height="394" as="geometry" />
        </mxCell>
        <mxCell id="cmLPi3Eq9WUsnecLFcOw-10" value="other" style="shape=cylinder3;whiteSpace=wrap;html=1;boundedLbl=1;backgroundOutline=1;size=15;fillColor=#647687;fontColor=#ffffff;strokeColor=#314354;" parent="1" vertex="1">
          <mxGeometry x="-674" y="265" width="91" height="50" as="geometry" />
        </mxCell>
        <mxCell id="cmLPi3Eq9WUsnecLFcOw-11" value="other" style="shape=cylinder3;whiteSpace=wrap;html=1;boundedLbl=1;backgroundOutline=1;size=15;fillColor=#647687;fontColor=#ffffff;strokeColor=#314354;" parent="1" vertex="1">
          <mxGeometry x="-674" y="241" width="91" height="50" as="geometry" />
        </mxCell>
        <mxCell id="cmLPi3Eq9WUsnecLFcOw-53" style="edgeStyle=orthogonalEdgeStyle;rounded=0;orthogonalLoop=1;jettySize=auto;html=1;exitX=1;exitY=0.5;exitDx=0;exitDy=0;exitPerimeter=0;entryX=0;entryY=0.36;entryDx=0;entryDy=0;entryPerimeter=0;fontSize=14;strokeWidth=1;" parent="1" source="cmLPi3Eq9WUsnecLFcOw-2" target="cmLPi3Eq9WUsnecLFcOw-14" edge="1">
          <mxGeometry relative="1" as="geometry" />
        </mxCell>
        <mxCell id="cmLPi3Eq9WUsnecLFcOw-2" value="genes.faa" style="shape=cylinder3;whiteSpace=wrap;html=1;boundedLbl=1;backgroundOutline=1;size=15;fillColor=#647687;fontColor=#ffffff;strokeColor=#314354;" parent="1" vertex="1">
          <mxGeometry x="-674" y="204" width="91" height="60" as="geometry" />
        </mxCell>
        <mxCell id="cmLPi3Eq9WUsnecLFcOw-52" style="edgeStyle=orthogonalEdgeStyle;rounded=0;orthogonalLoop=1;jettySize=auto;html=1;exitX=1;exitY=0.5;exitDx=0;exitDy=0;exitPerimeter=0;entryX=0;entryY=0.25;entryDx=0;entryDy=0;fontSize=14;strokeWidth=1;" parent="1" source="cmLPi3Eq9WUsnecLFcOw-1" target="cmLPi3Eq9WUsnecLFcOw-14" edge="1">
          <mxGeometry relative="1" as="geometry" />
        </mxCell>
        <mxCell id="cmLPi3Eq9WUsnecLFcOw-1" value="Annotations.tsv" style="shape=cylinder3;whiteSpace=wrap;html=1;boundedLbl=1;backgroundOutline=1;size=15;fillColor=#647687;fontColor=#ffffff;strokeColor=#314354;" parent="1" vertex="1">
          <mxGeometry x="-674" y="161" width="91" height="60" as="geometry" />
        </mxCell>
        <mxCell id="cmLPi3Eq9WUsnecLFcOw-4" style="edgeStyle=orthogonalEdgeStyle;rounded=0;orthogonalLoop=1;jettySize=auto;html=1;entryX=0;entryY=0;entryDx=0;entryDy=37.5;entryPerimeter=0;exitX=1;exitY=0.5;exitDx=0;exitDy=0;" parent="1" source="cmLPi3Eq9WUsnecLFcOw-13" target="cmLPi3Eq9WUsnecLFcOw-2" edge="1">
          <mxGeometry relative="1" as="geometry">
            <mxPoint x="-710" y="234" as="sourcePoint" />
          </mxGeometry>
        </mxCell>
        <mxCell id="cmLPi3Eq9WUsnecLFcOw-5" style="edgeStyle=orthogonalEdgeStyle;rounded=0;orthogonalLoop=1;jettySize=auto;html=1;" parent="1" source="cmLPi3Eq9WUsnecLFcOw-13" target="cmLPi3Eq9WUsnecLFcOw-1" edge="1">
          <mxGeometry relative="1" as="geometry">
            <mxPoint x="-724" y="170" as="sourcePoint" />
          </mxGeometry>
        </mxCell>
        <mxCell id="cmLPi3Eq9WUsnecLFcOw-13" value="&lt;div style=&quot;font-size: 16px;&quot;&gt;&lt;b&gt;Run DRAM&lt;/b&gt;&lt;br&gt;&lt;/div&gt;&lt;div&gt; with no additional arguments&lt;/div&gt;" style="rounded=0;whiteSpace=wrap;html=1;fillColor=#f5f5f5;fontColor=#333333;strokeColor=#666666;" parent="1" vertex="1">
          <mxGeometry x="-835" y="173" width="125" height="76" as="geometry" />
        </mxCell>
        <mxCell id="cmLPi3Eq9WUsnecLFcOw-42" style="edgeStyle=orthogonalEdgeStyle;rounded=0;orthogonalLoop=1;jettySize=auto;html=1;exitX=1;exitY=0.5;exitDx=0;exitDy=0;entryX=0;entryY=0.5;entryDx=0;entryDy=0;fontSize=12;fillColor=#fa6800;strokeColor=#C73500;" parent="1" edge="1">
          <mxGeometry relative="1" as="geometry">
            <mxPoint x="-404" y="302" as="sourcePoint" />
            <mxPoint x="-269" y="301" as="targetPoint" />
            <Array as="points">
              <mxPoint x="-400" y="302" />
              <mxPoint x="-400" y="320" />
              <mxPoint x="-310" y="320" />
              <mxPoint x="-310" y="301" />
            </Array>
          </mxGeometry>
        </mxCell>
        <mxCell id="cmLPi3Eq9WUsnecLFcOw-49" style="edgeStyle=orthogonalEdgeStyle;rounded=0;orthogonalLoop=1;jettySize=auto;html=1;exitX=0.5;exitY=1;exitDx=0;exitDy=0;fontSize=12;strokeWidth=2;" parent="1" source="cmLPi3Eq9WUsnecLFcOw-17" target="cmLPi3Eq9WUsnecLFcOw-48" edge="1">
          <mxGeometry relative="1" as="geometry">
            <mxPoint x="-580" y="383" as="targetPoint" />
            <Array as="points">
              <mxPoint x="-419" y="430" />
              <mxPoint x="-540" y="430" />
              <mxPoint x="-540" y="380" />
            </Array>
          </mxGeometry>
        </mxCell>
        <mxCell id="cmLPi3Eq9WUsnecLFcOw-17" value="" style="shape=image;html=1;verticalAlign=top;verticalLabelPosition=bottom;labelBackgroundColor=#ffffff;imageAspect=0;aspect=fixed;image=https://cdn1.iconfinder.com/data/icons/material-audio-video/22/loop-128.png;fillColor=#fa6800;fontColor=#000000;strokeColor=#C73500;" parent="1" vertex="1">
          <mxGeometry x="-434" y="287" width="30" height="30" as="geometry" />
        </mxCell>
        <mxCell id="cmLPi3Eq9WUsnecLFcOw-45" style="edgeStyle=orthogonalEdgeStyle;rounded=0;orthogonalLoop=1;jettySize=auto;html=1;exitX=0.5;exitY=1;exitDx=0;exitDy=0;entryX=0.5;entryY=0;entryDx=0;entryDy=0;fontSize=12;fillColor=#fa6800;strokeColor=#C73500;" parent="1" source="cmLPi3Eq9WUsnecLFcOw-18" target="cmLPi3Eq9WUsnecLFcOw-17" edge="1">
          <mxGeometry relative="1" as="geometry" />
        </mxCell>
        <mxCell id="cmLPi3Eq9WUsnecLFcOw-18" value="Read in &lt;b&gt;annotations.tsv&lt;/b&gt;" style="rounded=1;whiteSpace=wrap;html=1;fillColor=#fa6800;fontColor=#000000;strokeColor=#C73500;" parent="1" vertex="1">
          <mxGeometry x="-233" y="196.5" width="120" height="44.5" as="geometry" />
        </mxCell>
        <mxCell id="cmLPi3Eq9WUsnecLFcOw-46" style="edgeStyle=orthogonalEdgeStyle;rounded=0;orthogonalLoop=1;jettySize=auto;html=1;exitX=1;exitY=0.5;exitDx=0;exitDy=0;entryX=0;entryY=0.5;entryDx=0;entryDy=0;fontSize=12;fillColor=#fa6800;strokeColor=#C73500;" parent="1" source="cmLPi3Eq9WUsnecLFcOw-20" target="cmLPi3Eq9WUsnecLFcOw-35" edge="1">
          <mxGeometry relative="1" as="geometry" />
        </mxCell>
        <mxCell id="cmLPi3Eq9WUsnecLFcOw-20" value="Read in trees, (hard codes for now) " style="rounded=1;whiteSpace=wrap;html=1;fillColor=#fa6800;fontColor=#000000;strokeColor=#C73500;" parent="1" vertex="1">
          <mxGeometry x="-542" y="198" width="130" height="44" as="geometry" />
        </mxCell>
        <mxCell id="cmLPi3Eq9WUsnecLFcOw-22" value="&lt;div style=&quot;font-size: 20px;&quot; align=&quot;center&quot;&gt;&lt;b&gt;Run Tree Kit&lt;/b&gt;&lt;/div&gt;&lt;div align=&quot;center&quot;&gt;Takes only the annotations.tsv and &lt;br&gt;genes.faa and returns an annotations.tsv with the additional columns, tree ids, distance, metric, and difrance metric&lt;br&gt;&lt;/div&gt;&lt;p align=&quot;center&quot;&gt;&lt;/p&gt;" style="text;html=1;strokeColor=none;fillColor=none;spacing=5;spacingTop=-20;whiteSpace=wrap;overflow=hidden;rounded=0;align=center;" parent="1" vertex="1">
          <mxGeometry x="-426" y="112" width="260" height="148" as="geometry" />
        </mxCell>
        <mxCell id="cmLPi3Eq9WUsnecLFcOw-32" style="edgeStyle=orthogonalEdgeStyle;rounded=0;orthogonalLoop=1;jettySize=auto;html=1;exitX=1;exitY=0.5;exitDx=0;exitDy=0;entryX=0.5;entryY=0;entryDx=0;entryDy=0;fontSize=12;fillColor=#fa6800;strokeColor=#C73500;" parent="1" source="cmLPi3Eq9WUsnecLFcOw-27" target="cmLPi3Eq9WUsnecLFcOw-28" edge="1">
          <mxGeometry relative="1" as="geometry" />
        </mxCell>
        <mxCell id="cmLPi3Eq9WUsnecLFcOw-27" value="Find genes that need to be clarified" style="rounded=1;whiteSpace=wrap;html=1;fontSize=12;fillColor=#fa6800;fontColor=#000000;strokeColor=#C73500;" parent="1" vertex="1">
          <mxGeometry x="-269" y="276" width="97" height="50" as="geometry" />
        </mxCell>
        <mxCell id="cmLPi3Eq9WUsnecLFcOw-37" style="edgeStyle=orthogonalEdgeStyle;rounded=0;orthogonalLoop=1;jettySize=auto;html=1;exitX=0.5;exitY=1;exitDx=0;exitDy=0;entryX=1;entryY=0.5;entryDx=0;entryDy=0;fontSize=12;fillColor=#fa6800;strokeColor=#C73500;" parent="1" source="cmLPi3Eq9WUsnecLFcOw-28" target="cmLPi3Eq9WUsnecLFcOw-34" edge="1">
          <mxGeometry relative="1" as="geometry" />
        </mxCell>
        <mxCell id="cmLPi3Eq9WUsnecLFcOw-28" value="Filter &lt;b&gt;genes.faa&lt;/b&gt;" style="rounded=1;whiteSpace=wrap;html=1;fontSize=12;fillColor=#fa6800;fontColor=#000000;strokeColor=#C73500;" parent="1" vertex="1">
          <mxGeometry x="-160" y="350" width="70" height="47" as="geometry" />
        </mxCell>
        <mxCell id="cmLPi3Eq9WUsnecLFcOw-38" style="edgeStyle=orthogonalEdgeStyle;rounded=0;orthogonalLoop=1;jettySize=auto;html=1;exitX=0;exitY=0.5;exitDx=0;exitDy=0;entryX=1;entryY=0.5;entryDx=0;entryDy=0;fontSize=12;fillColor=#fa6800;strokeColor=#C73500;" parent="1" source="cmLPi3Eq9WUsnecLFcOw-34" target="cmLPi3Eq9WUsnecLFcOw-36" edge="1">
          <mxGeometry relative="1" as="geometry" />
        </mxCell>
        <mxCell id="cmLPi3Eq9WUsnecLFcOw-34" value="Run pplace on genes.faa" style="rounded=1;whiteSpace=wrap;html=1;fontSize=12;fillColor=#fa6800;fontColor=#000000;strokeColor=#C73500;" parent="1" vertex="1">
          <mxGeometry x="-266" y="412" width="100" height="60" as="geometry" />
        </mxCell>
        <mxCell id="cmLPi3Eq9WUsnecLFcOw-47" style="edgeStyle=orthogonalEdgeStyle;rounded=0;orthogonalLoop=1;jettySize=auto;html=1;exitX=1;exitY=0.5;exitDx=0;exitDy=0;entryX=0.5;entryY=0;entryDx=0;entryDy=0;fontSize=12;fillColor=#fa6800;strokeColor=#C73500;" parent="1" source="cmLPi3Eq9WUsnecLFcOw-35" target="cmLPi3Eq9WUsnecLFcOw-17" edge="1">
          <mxGeometry relative="1" as="geometry" />
        </mxCell>
        <mxCell id="cmLPi3Eq9WUsnecLFcOw-35" value="Locate Definitive nodes" style="rounded=1;whiteSpace=wrap;html=1;fontSize=12;fillColor=#fa6800;fontColor=#000000;strokeColor=#C73500;" parent="1" vertex="1">
          <mxGeometry x="-393" y="196.5" width="110" height="45.5" as="geometry" />
        </mxCell>
        <mxCell id="cmLPi3Eq9WUsnecLFcOw-40" style="edgeStyle=orthogonalEdgeStyle;rounded=0;orthogonalLoop=1;jettySize=auto;html=1;exitX=0;exitY=0.5;exitDx=0;exitDy=0;entryX=0.5;entryY=1;entryDx=0;entryDy=0;fontSize=12;fillColor=#fa6800;strokeColor=#C73500;" parent="1" source="cmLPi3Eq9WUsnecLFcOw-36" target="cmLPi3Eq9WUsnecLFcOw-39" edge="1">
          <mxGeometry relative="1" as="geometry" />
        </mxCell>
        <mxCell id="cmLPi3Eq9WUsnecLFcOw-36" value="Deturmine definitve gene landings" style="rounded=1;whiteSpace=wrap;html=1;fontSize=12;fillColor=#fa6800;fontColor=#000000;strokeColor=#C73500;" parent="1" vertex="1">
          <mxGeometry x="-416" y="412" width="120" height="60" as="geometry" />
        </mxCell>
        <mxCell id="cmLPi3Eq9WUsnecLFcOw-41" style="edgeStyle=orthogonalEdgeStyle;rounded=0;orthogonalLoop=1;jettySize=auto;html=1;exitX=0.5;exitY=0;exitDx=0;exitDy=0;entryX=0;entryY=0.5;entryDx=0;entryDy=0;fontSize=12;fillColor=#fa6800;strokeColor=#C73500;" parent="1" source="cmLPi3Eq9WUsnecLFcOw-39" target="cmLPi3Eq9WUsnecLFcOw-17" edge="1">
          <mxGeometry relative="1" as="geometry" />
        </mxCell>
        <mxCell id="cmLPi3Eq9WUsnecLFcOw-39" value="Check Distances for more hits" style="rounded=1;whiteSpace=wrap;html=1;fontSize=12;fillColor=#fa6800;fontColor=#000000;strokeColor=#C73500;" parent="1" vertex="1">
          <mxGeometry x="-530" y="343.5" width="120" height="60" as="geometry" />
        </mxCell>
        <mxCell id="cmLPi3Eq9WUsnecLFcOw-48" value="New annotations.tsv" style="shape=cylinder3;whiteSpace=wrap;html=1;boundedLbl=1;backgroundOutline=1;size=15;fillColor=#6d8764;fontColor=#ffffff;strokeColor=#3A5431;" parent="1" vertex="1">
          <mxGeometry x="-684" y="345.5" width="94" height="62.5" as="geometry" />
        </mxCell>
        <mxCell id="cmLPi3Eq9WUsnecLFcOw-50" value="For each tree" style="text;html=1;strokeColor=none;fillColor=none;align=center;verticalAlign=middle;whiteSpace=wrap;rounded=0;fontSize=14;" parent="1" vertex="1">
          <mxGeometry x="-399" y="291" width="86" height="30" as="geometry" />
        </mxCell>
      </root>
    </mxGraphModel>
  </diagram>
</mxfile>
